{
	"asset":{
		"generator":"Khronos glTF Blender I/O v4.3.47",
		"version":"2.0"
	},
	"scene":0,
	"scenes":[
		{
			"name":"Scene",
			"nodes":[
				2,
				5,
				6
			]
		}
	],
	"nodes":[
		{
			"name":"g"
		},
		{
			"children":[
				0
			],
			"name":"Collada visual scene group",
			"rotation":[
				0.70710688829422,
				0,
				0,
				0.7071066498756409
			]
		},
		{
			"children":[
				1
			],
			"name":"Sketchfab_model",
			"rotation":[
				-0.70710688829422,
				0,
				0,
				0.7071066498756409
			]
		},
		{
			"name":"g.001"
		},
		{
			"children":[
				3
			],
			"name":"Collada visual scene group.001",
			"rotation":[
				0.70710688829422,
				0,
				0,
				0.7071066498756409
			]
		},
		{
			"children":[
				4
			],
			"name":"Sketchfab_model.001",
			"rotation":[
				-0.70710688829422,
				0,
				0,
				0.7071066498756409
			]
		},
		{
			"mesh":0,
			"name":"Cube",
			"rotation":[
				0,
				1,
				0,
				0
			],
			"scale":[
				-0.6469126343727112,
				-0.08378324657678604,
				-0.3372381329536438
			],
			"translation":[
				2.77860689163208,
				-0.13669605553150177,
				0.03280705586075783
			]
		}
	],
	"materials":[
		{
			"doubleSided":true,
			"name":"Material",
			"pbrMetallicRoughness":{
				"baseColorFactor":[
					0.800000011920929,
					0.800000011920929,
					0.800000011920929,
					1
				],
				"metallicFactor":0,
				"roughnessFactor":0.5
			}
		}
	],
	"meshes":[
		{
			"name":"Cube",
			"primitives":[
				{
					"attributes":{
						"POSITION":0,
						"NORMAL":1,
						"TEXCOORD_0":2
					},
					"indices":3,
					"material":0
				}
			]
		}
	],
	"accessors":[
		{
			"bufferView":0,
			"componentType":5126,
			"count":25140,
			"max":[
				-3.3104286193847656,
				0.02693653106689453,
				0.7343754768371582
			],
			"min":[
				-5.31134557723999,
				-16.743803024291992,
				-0.73512202501297
			],
			"type":"VEC3"
		},
		{
			"bufferView":1,
			"componentType":5126,
			"count":25140,
			"type":"VEC3"
		},
		{
			"bufferView":2,
			"componentType":5126,
			"count":25140,
			"type":"VEC2"
		},
		{
			"bufferView":3,
			"componentType":5123,
			"count":55836,
			"type":"SCALAR"
		}
	],
	"bufferViews":[
		{
			"buffer":0,
			"byteLength":301680,
			"byteOffset":0,
			"target":34962
		},
		{
			"buffer":0,
			"byteLength":301680,
			"byteOffset":301680,
			"target":34962
		},
		{
			"buffer":0,
			"byteLength":201120,
			"byteOffset":603360,
			"target":34962
		},
		{
			"buffer":0,
			"byteLength":111672,
			"byteOffset":804480,
			"target":34963
		}
	],
	"buffers":[
		{
			"byteLength":916152,
			"uri":"smallBag.bin"
		}
	]
}
